<?xml version="1.0" encoding="UTF-8" standalone="no"?>
<!-- Created with Inkscape (http://www.inkscape.org/) -->

<svg
   xmlns:dc="http://purl.org/dc/elements/1.1/"
   xmlns:cc="http://creativecommons.org/ns#"
   xmlns:rdf="http://www.w3.org/1999/02/22-rdf-syntax-ns#"
   xmlns:svg="http://www.w3.org/2000/svg"
   xmlns="http://www.w3.org/2000/svg"
   xmlns:sodipodi="http://sodipodi.sourceforge.net/DTD/sodipodi-0.dtd"
   xmlns:inkscape="http://www.inkscape.org/namespaces/inkscape"
   width="238.39285"
   height="238.39285"
   id="svg2"
   version="1.1"
   inkscape:version="0.48.3.1 r9886"
   sodipodi:docname="gaussian_field.svg">
  <defs
     id="defs4">
    <marker
       inkscape:stockid="Arrow1Lend"
       orient="auto"
       refY="0"
       refX="0"
       id="Arrow1Lend"
       style="overflow:visible">
      <path
         id="path3780"
         d="M 0,0 5,-5 -12.5,0 5,5 0,0 z"
         style="fill-rule:evenodd;stroke:#000000;stroke-width:1pt"
         transform="matrix(-0.8,0,0,-0.8,-10,0)"
         inkscape:connector-curvature="0" />
    </marker>
  </defs>
  <sodipodi:namedview
     id="base"
     pagecolor="#ffffff"
     bordercolor="#666666"
     borderopacity="1.0"
     inkscape:pageopacity="0.0"
     inkscape:pageshadow="2"
     inkscape:zoom="0.49497475"
     inkscape:cx="223.23027"
     inkscape:cy="-107.26815"
     inkscape:document-units="px"
     inkscape:current-layer="layer1"
     showgrid="false"
     inkscape:window-width="1440"
     inkscape:window-height="823"
     inkscape:window-x="0"
     inkscape:window-y="24"
     inkscape:window-maximized="1"
     fit-margin-top="0"
     fit-margin-left="0"
     fit-margin-right="0"
     fit-margin-bottom="0" />
  <metadata
     id="metadata7">
    <rdf:RDF>
      <cc:Work
         rdf:about="">
        <dc:format>image/svg+xml</dc:format>
        <dc:type
           rdf:resource="http://purl.org/dc/dcmitype/StillImage" />
        <dc:title></dc:title>
      </cc:Work>
    </rdf:RDF>
  </metadata>
  <g
     inkscape:label="Layer 1"
     inkscape:groupmode="layer"
     id="layer1"
     transform="translate(-52.946433,-135.30861)">
    <path
       style="fill:none;stroke:#000000;stroke-width:1.25;stroke-linecap:butt;stroke-linejoin:miter;stroke-miterlimit:4;stroke-opacity:1;stroke-dasharray:none;marker-end:url(#Arrow1Lend)"
       d="m 53.571433,254.50504 237.142857,0"
       id="path2985"
       inkscape:connector-curvature="0" />
    <path
       style="fill:none;stroke:#000000;stroke-width:1.25;stroke-linecap:butt;stroke-linejoin:miter;stroke-miterlimit:4;stroke-opacity:1;stroke-dasharray:none;marker-end:url(#Arrow1Lend)"
       d="m 172.14286,373.07647 0,-237.14286"
       id="path2985-9"
       inkscape:connector-curvature="0" />
    <rect
       style="fill:none;stroke:#000000;stroke-width:1.25;stroke-miterlimit:4;stroke-dasharray:none;stroke-dashoffset:0"
       id="rect4217"
       width="132.85715"
       height="132.85715"
       x="105.71429"
       y="188.07646" />
    <path
       sodipodi:type="arc"
       style="fill:#ff0000;stroke:#000000;stroke-width:1.25;stroke-miterlimit:4;stroke-dasharray:none;stroke-dashoffset:0"
       id="path4221"
       sodipodi:cx="85.714287"
       sodipodi:cy="160.93361"
       sodipodi:rx="4.2857141"
       sodipodi:ry="4.2857141"
       d="m 90.000001,160.93361 c 0,2.36693 -1.91878,4.28571 -4.285714,4.28571 -2.366935,0 -4.285714,-1.91878 -4.285714,-4.28571 0,-2.36694 1.918779,-4.28572 4.285714,-4.28572 2.366934,0 4.285714,1.91878 4.285714,4.28572 z"
       transform="translate(20.464286,27.607139)" />
    <path
       transform="translate(152.39286,27.607139)"
       sodipodi:type="arc"
       style="fill:#ff0000;stroke:#000000;stroke-width:1.25;stroke-miterlimit:4;stroke-dasharray:none;stroke-dashoffset:0"
       id="path4221-9"
       sodipodi:cx="85.714287"
       sodipodi:cy="160.93361"
       sodipodi:rx="4.2857141"
       sodipodi:ry="4.2857141"
       d="m 90.000001,160.93361 c 0,2.36693 -1.91878,4.28571 -4.285714,4.28571 -2.366935,0 -4.285714,-1.91878 -4.285714,-4.28571 0,-2.36694 1.918779,-4.28572 4.285714,-4.28572 2.366934,0 4.285714,1.91878 4.285714,4.28572 z" />
    <path
       transform="translate(152.39286,159.53571)"
       sodipodi:type="arc"
       style="fill:#ff0000;stroke:#000000;stroke-width:1.25;stroke-miterlimit:4;stroke-dasharray:none;stroke-dashoffset:0"
       id="path4221-1"
       sodipodi:cx="85.714287"
       sodipodi:cy="160.93361"
       sodipodi:rx="4.2857141"
       sodipodi:ry="4.2857141"
       d="m 90.000001,160.93361 c 0,2.36693 -1.91878,4.28571 -4.285714,4.28571 -2.366935,0 -4.285714,-1.91878 -4.285714,-4.28571 0,-2.36694 1.918779,-4.28572 4.285714,-4.28572 2.366934,0 4.285714,1.91878 4.285714,4.28572 z" />
    <path
       transform="translate(20.464286,159.53571)"
       sodipodi:type="arc"
       style="fill:#ff0000;stroke:#000000;stroke-width:1.25;stroke-miterlimit:4;stroke-dasharray:none;stroke-dashoffset:0"
       id="path4221-3"
       sodipodi:cx="85.714287"
       sodipodi:cy="160.93361"
       sodipodi:rx="4.2857141"
       sodipodi:ry="4.2857141"
       d="m 90.000001,160.93361 c 0,2.36693 -1.91878,4.28571 -4.285714,4.28571 -2.366935,0 -4.285714,-1.91878 -4.285714,-4.28571 0,-2.36694 1.918779,-4.28572 4.285714,-4.28572 2.366934,0 4.285714,1.91878 4.285714,4.28572 z" />
    <path
       sodipodi:type="arc"
       style="fill:#0000ff;stroke:#000000;stroke-width:1.25;stroke-miterlimit:4;stroke-dasharray:none;stroke-dashoffset:0"
       id="path4221-38"
       sodipodi:cx="85.714287"
       sodipodi:cy="160.93361"
       sodipodi:rx="4.2857141"
       sodipodi:ry="4.2857141"
       d="m 90.000001,160.93361 c 0,2.36693 -1.91878,4.28571 -4.285714,4.28571 -2.366935,0 -4.285714,-1.91878 -4.285714,-4.28571 0,-2.36694 1.918779,-4.28572 4.285714,-4.28572 2.366934,0 4.285714,1.91878 4.285714,4.28572 z"
       transform="translate(48.44048,55.583382)" />
    <path
       sodipodi:type="arc"
       style="fill:#0000ff;stroke:#000000;stroke-width:1.25;stroke-miterlimit:4;stroke-dasharray:none;stroke-dashoffset:0"
       id="path4221-38-9"
       sodipodi:cx="85.714287"
       sodipodi:cy="160.93361"
       sodipodi:rx="4.2857141"
       sodipodi:ry="4.2857141"
       d="m 90.000001,160.93361 c 0,2.36693 -1.91878,4.28571 -4.285714,4.28571 -2.366935,0 -4.285714,-1.91878 -4.285714,-4.28571 0,-2.36694 1.918779,-4.28572 4.285714,-4.28572 2.366934,0 4.285714,1.91878 4.285714,4.28572 z"
       transform="translate(124.41667,55.583374)" />
    <path
       sodipodi:type="arc"
       style="fill:#0000ff;stroke:#000000;stroke-width:1.25;stroke-miterlimit:4;stroke-dasharray:none;stroke-dashoffset:0"
       id="path4221-38-3"
       sodipodi:cx="85.714287"
       sodipodi:cy="160.93361"
       sodipodi:rx="4.2857141"
       sodipodi:ry="4.2857141"
       d="m 90.000001,160.93361 c 0,2.36693 -1.91878,4.28571 -4.285714,4.28571 -2.366935,0 -4.285714,-1.91878 -4.285714,-4.28571 0,-2.36694 1.918779,-4.28572 4.285714,-4.28572 2.366934,0 4.285714,1.91878 4.285714,4.28572 z"
       transform="translate(124.41667,131.5595)" />
    <path
       sodipodi:type="arc"
       style="fill:#0000ff;stroke:#000000;stroke-width:1.25;stroke-miterlimit:4;stroke-dasharray:none;stroke-dashoffset:0"
       id="path4221-38-7"
       sodipodi:cx="85.714287"
       sodipodi:cy="160.93361"
       sodipodi:rx="4.2857141"
       sodipodi:ry="4.2857141"
       d="m 90.000001,160.93361 c 0,2.36693 -1.91878,4.28571 -4.285714,4.28571 -2.366935,0 -4.285714,-1.91878 -4.285714,-4.28571 0,-2.36694 1.918779,-4.28572 4.285714,-4.28572 2.366934,0 4.285714,1.91878 4.285714,4.28572 z"
       transform="translate(48.440481,131.5595)" />
  </g>
</svg>
